<?xml version="1.0" encoding="utf-8"?>
<!-- Generator: Adobe Illustrator 25.4.1, SVG Export Plug-In . SVG Version: 6.00 Build 0)  -->
<svg version="1.1" id="Layer_1" xmlns="http://www.w3.org/2000/svg" xmlns:xlink="http://www.w3.org/1999/xlink" x="0px" y="0px"
	 viewBox="0 0 1732 489" style="enable-background:new 0 0 1732 489;" xml:space="preserve">
<style type="text/css">
	.st0{fill:none;stroke:#2A9D8F;stroke-width:14;stroke-miterlimit:10;}
	.st1{fill:none;stroke:#E76F51;stroke-width:14;stroke-miterlimit:10;}
	.st2{fill:none;stroke:#E9C46A;stroke-width:14;stroke-miterlimit:10;}
	.st3{fill:none;}
	.st4{fill:#47839C;}
	.st5{font-family:'Corben';}
	.st6{font-size:225px;}
	.st7{font-weight:700;}
</style>
<g id="Layer_2_00000152966921528874340100000010700468731143870613_">
	<path class="st0" d="M1396.5,361h-408c-32.9,0-59.5-23.7-59.5-53V79.7c0-29.3,26.6-53,59.5-55.7h408c32.9,2.7,59.5,26.4,59.5,55.7
		v228.2C1456,337.2,1429.4,361,1396.5,361z"/>
	<path class="st1" d="M674.5,388h-408c-32.9,0-59.5-23.7-59.5-53V106.7c0-29.3,26.6-53,59.5-55.7h408c32.9,2.7,59.5,26.4,59.5,55.7
		V335C734,364.3,707.4,388,674.5,388z"/>
	<path class="st2" d="M1040.5,456h-408c-32.9,0-59.5-23.7-59.5-53V174.7c0-29.3,26.6-53,59.5-55.7h408c32.9,2.7,59.5,26.4,59.5,55.7
		V403C1100,432.3,1073.4,456,1040.5,456z"/>
</g>
<g id="Layer_1_00000085227945811784810950000000635122658269169825_">
	<rect x="-92.5" y="-310" class="st3" width="1911" height="1071"/>
	<text transform="matrix(1.0016 0 0 1 8.1855 329.1016)" class="st4 st5 st6">chromatica</text>
</g>
</svg>
