<svg xmlns="http://www.w3.org/2000/svg" viewBox="0 0 1732 489" style="enable-background:new 0 0 1732 489" xml:space="preserve"><path d="M1396.5 361h-408c-32.9 0-59.5-23.7-59.5-53V79.7c0-29.3 26.6-53 59.5-55.7h408c32.9 2.7 59.5 26.4 59.5 55.7v228.2c0 29.3-26.6 53.1-59.5 53.1z" style="fill:none;stroke:#2a9d8f;stroke-width:14;stroke-miterlimit:10"/><path d="M674.5 388h-408c-32.9 0-59.5-23.7-59.5-53V106.7c0-29.3 26.6-53 59.5-55.7h408c32.9 2.7 59.5 26.4 59.5 55.7V335c0 29.3-26.6 53-59.5 53z" style="fill:none;stroke:#e76f51;stroke-width:14;stroke-miterlimit:10"/><path d="M1040.5 456h-408c-32.9 0-59.5-23.7-59.5-53V174.7c0-29.3 26.6-53 59.5-55.7h408c32.9 2.7 59.5 26.4 59.5 55.7V403c0 29.3-26.6 53-59.5 53z" style="fill:none;stroke:#e9c46a;stroke-width:14;stroke-miterlimit:10"/><g><path style="fill:none" d="M-92.5-310h1911V761h-1911z"/><text transform="matrix(1.0016 0 0 1 8.185 329.102)" style="font-size:225px;font-family:'Corben';fill:#47839c">chromatica</text></g></svg>