<?xml version="1.0" encoding="utf-8"?>
<!-- Generator: Adobe Illustrator 25.4.1, SVG Export Plug-In . SVG Version: 6.00 Build 0)  -->
<svg version="1.1" xmlns="http://www.w3.org/2000/svg" xmlns:xlink="http://www.w3.org/1999/xlink" x="0px" y="0px"
	 viewBox="0 0 1920 1080" style="enable-background:new 0 0 1920 1080;" xml:space="preserve">
<style type="text/css">
	.st0{fill:none;stroke:#E76F51;stroke-width:14;stroke-miterlimit:10;}
	.st1{fill:none;stroke:#2A9D8F;stroke-width:14;stroke-miterlimit:10;}
	.st2{fill:none;stroke:#E9C46A;stroke-width:14;stroke-miterlimit:10;}
	.st3{fill:none;}
	.st4{fill:#47839C;}
	.st5{font-family:'Corben-Bold';}
	.st6{font-size:225px;}
</style>
<g id="Layer_2">
	<path class="st0" d="M834,705H333c-7.18,0-13-5.82-13-13V343c0-7.18,5.82-13,13-13h501c7.18,0,13,5.82,13,13v349
		C847,699.18,841.18,705,834,705z"/>
	<path class="st1" d="M1543,669h-480c-7.18,0-13-5.82-13-13V307c0-7.18,5.82-13,13-13h480c7.18,0,13,5.82,13,13v349
		C1556,663.18,1550.18,669,1543,669z"/>
	<path class="st2" d="M1187,836H686c-7.18,0-13-5.82-13-13V474c0-7.18,5.82-13,13-13h501c7.18,0,13,5.82,13,13v349
		C1200,830.18,1194.18,836,1187,836z"/>
</g>
<g id="Layer_1">
	<rect x="4.5" y="1" class="st3" width="1911" height="1071"/>
	<text transform="matrix(1.0016 0 0 1 105.1855 640.1016)" class="st4 st5 st6">chromatica</text>
</g>
</svg>
